<?xml version="1.0" standalone="no"?>
<!DOCTYPE svg PUBLIC "-//W3C//DTD SVG 20010904//EN"
 "http://www.w3.org/TR/2001/REC-SVG-20010904/DTD/svg10.dtd">
<svg version="1.0" xmlns="http://www.w3.org/2000/svg"
 width="512.000000pt" height="512.000000pt" viewBox="0 0 512.000000 512.000000"
 preserveAspectRatio="xMidYMid meet">
<metadata>
Created by potrace 1.11, written by Peter Selinger 2001-2013
</metadata>
<g transform="translate(0.000000,512.000000) scale(0.100000,-0.100000)"
fill="#000000" stroke="none">
<path d="M2315 4804 c-317 -45 -524 -107 -775 -235 -437 -221 -768 -552 -989
-989 -108 -212 -171 -402 -218 -650 -26 -137 -26 -603 0 -740 47 -248 110
-438 218 -650 221 -437 552 -768 989 -989 369 -188 724 -261 1160 -239 536 26
1064 264 1454 654 280 279 489 642 586 1018 59 225 65 278 65 576 0 298 -6
351 -65 576 -97 376 -306 739 -586 1018 -273 273 -633 483 -997 581 -208 57
-296 67 -562 70 -137 2 -263 1 -280 -1z m540 -584 c204 -35 378 -98 549 -198
128 -76 220 -148 331 -264 252 -259 395 -585 411 -938 6 -141 1 -159 -56 -198
-28 -19 -44 -23 -78 -19 -81 9 -122 72 -122 185 0 38 -7 108 -15 155 -89 510
-481 902 -1018 1019 -86 19 -133 22 -297 22 -164 0 -211 -3 -297 -22 -325 -71
-602 -243 -788 -491 -150 -199 -228 -411 -244 -665 -9 -137 -22 -169 -78 -192
-67 -29 -137 -5 -169 58 -34 65 -1 345 62 534 134 400 450 736 854 909 286
123 630 160 955 105z m-1197 -1433 c23 -15 54 -46 69 -69 l28 -42 0 -681 0
-681 -28 -42 c-15 -23 -46 -54 -69 -69 -37 -25 -51 -28 -123 -28 -72 0 -86 3
-123 28 -23 15 -54 46 -69 69 l-28 42 -3 660 c-2 430 1 673 7 696 14 49 63
104 113 129 63 32 169 27 226 -12z m2050 0 c23 -15 54 -46 69 -69 l28 -42 0
-681 0 -681 -28 -42 c-15 -23 -46 -54 -69 -69 -37 -25 -51 -28 -123 -28 -72 0
-86 3 -123 28 -23 15 -54 46 -69 69 l-28 42 -3 660 c-2 430 1 673 7 696 14 49
63 104 113 129 63 32 169 27 226 -12z m-891 -189 l23 -21 0 -584 c0 -570 0
-583 -20 -603 -13 -13 -33 -20 -60 -20 -27 0 -47 7 -60 20 -20 20 -20 33 -20
602 l0 582 22 23 c28 30 83 31 115 1z m198 -73 l25 -24 0 -510 0 -510 -26 -20
c-34 -27 -74 -27 -108 0 l-26 20 0 510 0 510 25 24 c15 16 36 25 55 25 19 0
40 -9 55 -25z m-1859 -21 c64 -30 64 -33 64 -439 0 -308 -2 -371 -15 -395 -37
-72 -144 -80 -202 -16 l-33 36 0 373 c0 411 -2 398 64 438 38 23 77 24 122 3z
m2928 1 c66 -31 66 -33 66 -440 0 -308 -2 -371 -15 -395 -37 -72 -144 -80
-202 -16 l-33 36 0 373 c0 411 -2 398 64 438 37 23 77 24 120 4z m-1469 -80
l25 -24 0 -410 0 -410 -26 -20 c-34 -27 -74 -27 -108 0 l-26 20 0 410 0 410
25 24 c15 16 36 25 55 25 19 0 40 -9 55 -25z m-198 -127 c23 -21 23 -22 23
-305 0 -270 -1 -284 -20 -303 -13 -13 -33 -20 -60 -20 -27 0 -47 7 -60 20 -19
19 -20 33 -20 302 0 275 0 282 22 305 28 30 83 31 115 1z m-200 -100 c22 -21
23 -26 23 -205 0 -170 -1 -184 -20 -203 -13 -13 -33 -20 -60 -20 -27 0 -47 7
-60 20 -19 19 -20 33 -20 202 0 173 1 183 22 205 28 30 83 31 115 1z m1000 0
c22 -21 23 -26 23 -205 0 -170 -1 -184 -20 -203 -13 -13 -33 -20 -60 -20 -27
0 -47 7 -60 20 -19 19 -20 33 -20 202 0 173 1 183 22 205 28 30 83 31 115 1z
m-1197 -90 c17 -19 20 -35 20 -114 0 -114 -14 -139 -80 -139 -66 0 -80 25 -80
138 0 79 3 94 22 114 29 31 89 32 118 1z"/>
</g>
</svg>
