<svg xmlns="http://www.w3.org/2000/svg" width="2730.667" height="2730.667" preserveAspectRatio="xMidYMid meet" version="1.0" viewBox="0 0 2048 2048"><metadata>Created by potrace 1.14, written by Peter Selinger 2001-2017</metadata><g fill="#000" stroke="none"><path d="M9755 20469 c-768 -36 -1558 -165 -2305 -375 -2329 -656 -4363 -2135 -5720 -4159 -808 -1206 -1346 -2556 -1585 -3980 -254 -1513 -173 -3037 241 -4505 777 -2756 2704 -5083 5274 -6370 2276 -1140 4909 -1387 7370 -694 2497 704 4667 2367 5999 4598 1448 2425 1832 5325 1065 8046 -777 2756 -2704 5083 -5274 6370 -1285 643 -2670 1002 -4130 1070 -244 11 -683 11 -935 -1z m1135 -814 c1507 -106 2925 -553 4215 -1328 894 -537 1727 -1254 2401 -2067 1061 -1280 1764 -2812 2038 -4436 92 -545 130 -1005 130 -1584 0 -384 -9 -574 -40 -905 -168 -1771 -841 -3465 -1937 -4878 -409 -526 -906 -1040 -1415 -1465 -1285 -1071 -2825 -1781 -4458 -2056 -545 -92 -1005 -130 -1584 -130 -384 0 -574 9 -905 40 -1763 167 -3450 835 -4860 1923 -537 414 -1065 925 -1501 1451 -1061 1280 -1764 2812 -2038 4436 -92 545 -130 1005 -130 1584 0 485 21 809 80 1250 221 1655 860 3187 1883 4515 411 533 925 1065 1451 1501 1197 992 2604 1668 4116 1978 519 106 1011 165 1609 190 164 7 737 -5 945 -19z" transform="translate(0.000000,2048.000000) scale(0.100000,-0.100000)"/><path d="M9730 19269 c-1225 -71 -2380 -374 -3481 -912 -697 -341 -1353 -780 -1967 -1313 -189 -164 -682 -657 -846 -846 -799 -919 -1389 -1944 -1766 -3068 -320 -952 -470 -1874 -470 -2890 0 -500 29 -899 101 -1375 250 -1653 970 -3223 2066 -4502 62 -73 113 -138 113 -146 0 -8 9 -17 20 -20 11 -3 20 -12 20 -20 0 -8 9 -17 20 -20 11 -3 20 -12 20 -21 0 -9 7 -16 15 -16 9 0 18 -7 22 -16 8 -20 457 -464 598 -590 1219 -1092 2682 -1826 4270 -2143 842 -167 1741 -214 2610 -135 1099 99 2151 395 3156 887 661 324 1322 759 1883 1240 78 67 95 77 128 77 31 0 38 3 38 20 0 17 7 20 40 20 33 0 40 3 40 20 0 17 7 20 40 20 33 0 40 3 40 20 0 17 7 20 40 20 33 0 40 3 40 20 0 17 7 20 40 20 33 0 40 3 40 20 0 13 7 20 20 20 13 0 20 7 20 20 0 17 7 20 40 20 33 0 40 3 40 20 0 13 7 20 20 20 13 0 20 7 20 20 0 17 7 20 40 20 33 0 40 3 40 20 0 13 7 20 20 20 13 0 20 7 20 20 0 13 7 20 20 20 13 0 20 7 20 20 0 13 7 20 20 20 13 0 20 7 20 20 0 13 7 20 20 20 13 0 20 7 20 20 0 13 7 20 20 20 13 0 20 7 20 20 0 13 7 20 20 20 17 0 20 7 20 40 0 33 3 40 20 40 13 0 20 7 20 20 0 13 7 20 20 20 17 0 20 7 20 40 0 33 3 40 20 40 13 0 20 7 20 20 0 13 7 20 20 20 17 0 20 7 20 40 0 33 3 40 20 40 17 0 20 7 20 40 0 33 3 40 20 40 17 0 20 7 20 40 0 33 3 40 20 40 17 0 20 7 20 40 0 33 3 40 20 40 18 0 20 7 20 60 0 53 2 60 20 60 17 0 20 7 20 45 0 32 6 51 20 65 11 11 20 22 20 24 0 3 43 63 95 135 664 909 1175 2014 1450 3136 234 957 310 1988 219 2990 -99 1099 -395 2151 -887 3156 -341 697 -780 1353 -1313 1967 -164 189 -657 682 -846 846 -1552 1349 -3422 2110 -5472 2226 -202 11 -793 11 -996 -1z m2520 -4235 c124 -103 322 -266 440 -363 195 -161 556 -458 2440 -2015 333 -275 650 -536 704 -580 193 -157 221 -183 269 -242 54 -66 126 -207 153 -299 17 -56 18 -143 21 -1175 l3 -1115 -3347 -2342 -3347 -2343 -2250 0 c-1238 0 -2246 4 -2241 8 6 5 395 241 865 524 470 284 1582 954 2470 1490 888 536 1662 1003 1720 1038 58 35 114 71 125 81 18 18 18 19 1 19 -25 0 -457 256 -1886 1120 -267 161 -613 370 -770 465 -157 95 -413 250 -570 345 -632 384 -1579 957 -2159 1305 l-613 369 6 71 c20 208 116 407 257 528 30 25 171 142 314 259 143 118 456 375 695 573 553 457 1297 1071 1835 1516 231 190 584 482 785 648 l365 301 1745 0 1745 0 225 -186z" transform="translate(0.000000,2048.000000) scale(0.100000,-0.100000)"/><path d="M10320 7744 c0 -14 3 -15 18 -3 9 7 19 15 21 16 2 2 -5 3 -17 3 -14 0 -22 -6 -22 -16z" transform="translate(0.000000,2048.000000) scale(0.100000,-0.100000)"/></g></svg>