<svg
  xmlns="http://www.w3.org/2000/svg"
  xmlns:xlink="http://www.w3.org/1999/xlink"
  xmlns:fi="http://pattern.flaticon.com/"
  x="0"
  y="0"
  width="852"
  height="480"
  viewBox="0 0 852 480"
>
  <defs>
    <g transform="matrix(1.0350717306137085 0 0 1.0350717306137085 291 157)" fill="#ffffff" id="L1_3">
      <path
        d="M49.489,8.475c-9.057-9.057-22.66-10.851-33.528-5.399L15.95,3.055l-0.878,0.48c-0.052,0.029-0.101,0.062-0.153,0.091   c-0.514,0.285-1.021,0.585-1.52,0.903c-0.05,0.032-0.102,0.062-0.152,0.095c-0.542,0.35-1.074,0.719-1.596,1.109   c-0.064,0.048-0.126,0.098-0.189,0.146c-0.431,0.327-0.854,0.669-1.27,1.024C10.076,7.002,9.96,7.101,9.845,7.201   C9.38,7.61,8.922,8.031,8.478,8.475S7.613,9.377,7.204,9.842c-0.101,0.115-0.199,0.231-0.298,0.347   c-0.355,0.416-0.696,0.839-1.024,1.27c-0.048,0.064-0.099,0.125-0.147,0.189c-0.39,0.522-0.759,1.054-1.109,1.595   c-0.033,0.051-0.064,0.103-0.096,0.154c-0.318,0.499-0.618,1.005-0.902,1.518c-0.029,0.052-0.062,0.101-0.091,0.153l-0.48,0.878   l0.021,0.011C-2.374,26.826-0.579,40.43,8.478,49.486c5.653,5.653,13.08,8.48,20.506,8.48c4.47,0,8.938-1.032,13.022-3.081   l0.011,0.021l0.878-0.48c0.051-0.028,0.099-0.061,0.15-0.089c0.515-0.285,1.024-0.586,1.524-0.906c0.05-0.032,0.1-0.062,0.15-0.094   c0.542-0.35,1.074-0.719,1.596-1.109c0.065-0.048,0.127-0.099,0.191-0.148c0.431-0.327,0.853-0.669,1.269-1.023   c0.116-0.099,0.232-0.197,0.347-0.298c0.465-0.409,0.923-0.829,1.367-1.273s0.864-0.902,1.273-1.367   c0.101-0.115,0.199-0.231,0.298-0.347c0.355-0.416,0.696-0.839,1.024-1.27c0.048-0.064,0.099-0.125,0.147-0.189   c0.39-0.522,0.759-1.055,1.109-1.596c0.032-0.05,0.063-0.102,0.095-0.152c0.318-0.499,0.618-1.006,0.903-1.52   c0.029-0.052,0.062-0.101,0.091-0.153l0.48-0.878l-0.021-0.011C60.34,31.135,58.546,17.531,49.489,8.475z M28.983,1.993   c6.914,0,13.828,2.632,19.092,7.896c8.415,8.415,10.096,21.046,5.057,31.154l-13.188-7.209c1.943-4.402,1.125-9.738-2.476-13.339   c-3.602-3.602-8.937-4.42-13.339-2.477L16.921,4.831C20.707,2.944,24.844,1.993,28.983,1.993z M51.171,44.355   c-0.244,0.352-0.496,0.696-0.756,1.036c-0.08,0.105-0.16,0.209-0.242,0.313c-0.248,0.314-0.505,0.622-0.767,0.925   c-0.087,0.101-0.171,0.203-0.26,0.303c-0.347,0.389-0.702,0.771-1.071,1.14s-0.751,0.725-1.14,1.071   c-0.1,0.089-0.202,0.173-0.303,0.26c-0.303,0.262-0.61,0.519-0.925,0.767c-0.104,0.082-0.208,0.162-0.313,0.242   c-0.34,0.26-0.685,0.512-1.036,0.756c-0.075,0.052-0.149,0.105-0.224,0.156c-0.435,0.295-0.878,0.58-1.331,0.85l-7.205-13.181   c0.661-0.437,1.289-0.946,1.871-1.528c0.582-0.582,1.091-1.209,1.528-1.871L52.178,42.8c-0.27,0.452-0.555,0.895-0.849,1.33   C51.277,44.205,51.224,44.28,51.171,44.355z M35.067,36.905c-0.065,0.05-0.132,0.097-0.198,0.145   c-0.342,0.248-0.697,0.482-1.074,0.689c-0.014,0.008-0.027,0.016-0.041,0.024l-0.18,0.098c-3.764,1.943-8.513,1.341-11.663-1.81   c-3.151-3.151-3.753-7.896-1.812-11.659l0.104-0.19c0.005-0.01,0.012-0.019,0.017-0.029c0.208-0.379,0.443-0.736,0.693-1.08   c0.048-0.065,0.095-0.132,0.144-0.196c0.266-0.348,0.547-0.681,0.854-0.988c0.306-0.306,0.64-0.588,0.987-0.853   c0.065-0.05,0.132-0.097,0.198-0.146c0.342-0.248,0.697-0.481,1.073-0.688c0.014-0.008,0.027-0.017,0.041-0.024l0.179-0.098   c1.436-0.741,3.014-1.114,4.592-1.114c2.561,0,5.122,0.975,7.071,2.924c3.151,3.151,3.753,7.896,1.812,11.659l-0.104,0.19   c-0.005,0.01-0.012,0.019-0.017,0.029c-0.208,0.379-0.443,0.736-0.693,1.08c-0.048,0.065-0.095,0.132-0.144,0.196   c-0.266,0.348-0.547,0.681-0.854,0.988C35.748,36.358,35.415,36.64,35.067,36.905z M6.639,13.831   c0.051-0.075,0.104-0.149,0.156-0.224c0.244-0.352,0.496-0.697,0.756-1.036c0.08-0.105,0.16-0.209,0.242-0.313   c0.248-0.314,0.505-0.622,0.767-0.925c0.087-0.101,0.171-0.203,0.26-0.303c0.347-0.389,0.702-0.771,1.071-1.14   s0.751-0.725,1.14-1.071c0.1-0.089,0.202-0.173,0.303-0.26c0.303-0.262,0.61-0.519,0.925-0.767   c0.104-0.082,0.208-0.162,0.313-0.242c0.339-0.26,0.684-0.512,1.036-0.756c0.075-0.052,0.15-0.106,0.225-0.157   c0.435-0.295,0.878-0.58,1.33-0.849l7.205,13.181c-0.661,0.437-1.289,0.946-1.871,1.528s-1.091,1.209-1.528,1.871L5.789,15.161   C6.059,14.709,6.344,14.266,6.639,13.831z M9.892,48.072C1.476,39.657-0.204,27.026,4.834,16.918l13.188,7.209   c-1.943,4.402-1.125,9.738,2.476,13.339c2.34,2.34,5.412,3.509,8.485,3.509c1.658,0,3.311-0.352,4.854-1.033l7.209,13.188   C30.938,58.168,18.307,56.488,9.892,48.072z"
      />
      <path
        d="M26.155,26.152c-0.756,0.755-1.172,1.76-1.172,2.828s0.416,2.073,1.172,2.828c0.755,0.756,1.76,1.172,2.828,1.172   s2.073-0.416,2.828-1.172c0.756-0.755,1.172-1.76,1.172-2.828s-0.416-2.073-1.172-2.828C30.302,24.641,27.665,24.641,26.155,26.152   z M30.397,30.395c-0.756,0.756-2.072,0.756-2.828,0c-0.378-0.378-0.586-0.88-0.586-1.414s0.208-1.036,0.586-1.414   s0.88-0.586,1.414-0.586s1.036,0.208,1.414,0.586s0.586,0.88,0.586,1.414S30.775,30.017,30.397,30.395z"
      />
    </g>
    <g transform="matrix(1.1532695293426514 0 0 1.1532695293426514 225 34)" fill="#ffffff" id="L1_4">
      <path
        d="M28.404,3.413c-0.976-0.552-2.131-0.534-3.09,0.044c-0.046,0.027-0.09,0.059-0.13,0.093L11.634,15.013H1   c-0.553,0-1,0.447-1,1v19c0,0.266,0.105,0.52,0.293,0.707S0.734,36.013,1,36.013l10.61-0.005l13.543,12.44   c0.05,0.046,0.104,0.086,0.161,0.12c0.492,0.297,1.037,0.446,1.582,0.446c0.517-0.001,1.033-0.134,1.508-0.402   C29.403,48.048,30,47.018,30,45.857V6.169C30,5.008,29.403,3.978,28.404,3.413z M28,45.857c0,0.431-0.217,0.81-0.579,1.015   c-0.155,0.087-0.548,0.255-1,0.026L13,34.569v-4.556c0-0.553-0.447-1-1-1s-1,0.447-1,1v3.996l-9,0.004v-17h9v4c0,0.553,0.447,1,1,1   s1-0.447,1-1v-4.536l13.405-11.34c0.461-0.242,0.86-0.07,1.016,0.018C27.783,5.36,28,5.739,28,6.169V45.857z"
      />
      <path
        d="M38.797,7.066c-0.523-0.177-1.091,0.103-1.269,0.626c-0.177,0.522,0.103,1.091,0.626,1.269   c7.101,2.411,11.872,9.063,11.872,16.553c0,7.483-4.762,14.136-11.849,16.554c-0.522,0.178-0.802,0.746-0.623,1.27   c0.142,0.415,0.53,0.677,0.946,0.677c0.107,0,0.216-0.017,0.323-0.054c7.896-2.693,13.202-10.106,13.202-18.446   C52.026,17.166,46.71,9.753,38.797,7.066z"
      />
      <path
        d="M43.026,25.513c0-5.972-4.009-11.302-9.749-12.962c-0.533-0.151-1.084,0.152-1.238,0.684   c-0.153,0.53,0.152,1.085,0.684,1.238c4.889,1.413,8.304,5.953,8.304,11.04s-3.415,9.627-8.304,11.04   c-0.531,0.153-0.837,0.708-0.684,1.238c0.127,0.438,0.526,0.723,0.961,0.723c0.092,0,0.185-0.013,0.277-0.039   C39.018,36.815,43.026,31.485,43.026,25.513z"
      />
    </g>
    <path
      d="M52.66,0.249c-0.216-0.189-0.501-0.275-0.789-0.241l-31,4.011C20.373,4.084,20,4.507,20,5.01v6.017v4.212v25.384  C18.174,38.428,15.273,37,12,37c-5.514,0-10,4.037-10,9s4.486,9,10,9s10-4.037,10-9c0-0.232-0.019-0.46-0.039-0.687  C21.974,45.248,22,45.189,22,45.121V16.118l29-3.753v18.257C49.174,28.428,46.273,27,43,27c-5.514,0-10,4.037-10,9s4.486,9,10,9  c5.464,0,9.913-3.966,9.993-8.867c0-0.013,0.007-0.024,0.007-0.037V11.227V7.016V1C53,0.712,52.876,0.438,52.66,0.249z M12,53  c-4.411,0-8-3.141-8-7s3.589-7,8-7s8,3.141,8,7S16.411,53,12,53z M43,43c-4.411,0-8-3.141-8-7s3.589-7,8-7s8,3.141,8,7  S47.411,43,43,43z M22,14.101v-3.074V5.889l29-3.752v4.879v3.332L22,14.101z"
      transform="matrix(1.0909091234207153 0 0 1.0909091234207153 65 -13)"
      fill="#ffffff"
      id="L1_6"
    />
    <g transform="matrix(0.11718743294477463 0 0 0.11718743294477463 133 211)" fill="#ffffff" id="L1_7">
      <path
        d="m402.238281 333.300781c-5.328125-1.429687-10.800781 1.726563-12.230469 7.0625-1.429687 5.324219 1.730469 10.808594 7.0625 12.238281 5.328126 1.429688 10.8125-1.738281 12.242188-7.0625 1.425781-5.335937-1.738281-10.808593-7.074219-12.238281zm0 0"
      />
      <path
        d="m114.925781 352.601562c5.335938-1.429687 8.492188-6.914062 7.0625-12.238281-1.429687-5.335937-6.902343-8.492187-12.226562-7.0625-5.335938 1.425781-8.503907 6.902344-7.074219 12.238281 1.425781 5.324219 6.914062 8.492188 12.238281 7.0625zm0 0"
      />
      <path
        d="m500.554688 320.765625c7.53125-24.785156 11.214843-48.089844 11.214843-70.988281 0-66.429688-27.085937-129.195313-76.273437-176.738282-47.9375-46.335937-112.214844-73.039062-179.496094-73.039062-137.828125 0-255.769531 111.523438-255.769531 249.777344 0 22.902344 3.683593 46.210937 11.21875 71.003906-9.148438 7.222656-13.59375 19.480469-10.441407 31.3125l25.867188 96.496094c4.25 15.914062 20.605469 25.507812 36.707031 21.207031l30.613281-8.207031c7.015626 10.195312 19.914063 15.347656 32.460938 11.996094l38.605469-10.351563c15.960937-4.277344 25.46875-20.746094 21.191406-36.703125l-36.199219-135.109375c-4.28125-15.964844-20.757812-25.472656-36.714844-21.191406l-38.59375 10.339843c-4.066406 1.089844-7.710937 2.972657-10.816406 5.433594-1.992187-9.300781-3.234375-18.527344-3.714844-27.632812 11.089844-3.488282 19.371094-13.167969 20.546876-25.207032 8.242187-84.492187 86.765624-153.234374 175.039062-153.234374s166.796875 68.742187 175.039062 153.234374c1.171876 12.039063 9.457032 21.71875 20.546876 25.207032-.480469 9.105468-1.722657 18.332031-3.714844 27.632812-3.109375-2.460937-6.75-4.34375-10.816406-5.433594l-38.59375-10.339843c-15.96875-4.277344-32.4375 5.226562-36.714844 21.191406l-36.199219 135.109375c-4.277344 15.960938 5.230469 32.425781 21.191406 36.703125l38.613281 10.351563c12.496094 3.339843 25.410157-1.761719 32.453126-11.996094l30.621093 8.210937c16.15625 4.3125 32.46875-5.371093 36.695313-21.203125l25.871094-96.515625c3.15625-11.835937-1.308594-24.109375-10.4375-31.316406zm-420.441407-20.894531 38.597657-10.34375c5.324218-1.429688 10.8125 1.742187 12.242187 7.0625l36.195313 135.109375c1.425781 5.320312-1.742188 10.804687-7.0625 12.234375l-9.652344 2.585937-18.09375-67.558593c-1.425782-5.328126-6.902344-8.492188-12.234375-7.066407-5.332031 1.429688-8.496094 6.90625-7.066407 12.238281l18.097657 67.5625-9.648438 2.585938c-5.316406 1.421875-10.808593-1.75-12.238281-7.070312 0-.003907 0-.007813 0-.007813l-36.207031-135.101563c-1.425781-5.316406 1.746093-10.804687 7.070312-12.230468zm7.25 142.859375-28.945312 7.761719c-5.324219 1.421874-10.808594-1.714844-12.242188-7.070313l-25.863281-96.492187c-1.34375-5.046876 1.445312-10.324219 6.433594-12.046876.230468-.082031.472656-.152343.636718-.195312l28.539063-7.652344c2.914063 7.273438-2.40625-9.398437 31.441406 115.695313zm-66.886719-182.964844h20c.871094 15.921875 3.8125 32.121094 8.78125 48.367187l-19.203124 5.152344c-5.539063-18.636718-8.695313-36.292968-9.578126-53.519531zm430.449219-28.546875c-9.445312-96.796875-97.304687-171.273438-194.925781-171.273438-97.675781 0-185.488281 74.519532-194.929688 171.277344-.46875 4.800782-4.769531 8.5625-9.800781 8.5625h-30.8125c5.585938-120.144531 111.164063-219.804687 235.542969-219.804687 124.375 0 229.957031 99.660156 235.539062 219.804687h-30.816406c-5.023437 0-9.328125-3.761718-9.796875-8.566406zm40.59375 28.546875c-.882812 17.226563-4.039062 34.882813-9.574219 53.519531l-19.207031-5.148437c4.96875-16.253907 7.910157-32.449219 8.78125-48.371094zm-88.769531 187.441406s0 0-.003906 0c-1.425782 5.320313-6.917969 8.492188-12.226563 7.074219l-9.65625-2.589844 18.097657-67.558594c1.429687-5.332031-1.734376-10.808593-7.066407-12.238281-5.328125-1.425781-10.808593 1.738281-12.234375 7.066407l-18.097656 67.558593-9.648438-2.589843c-5.320312-1.425782-8.492187-6.914063-7.066406-12.230469l36.199219-135.109375c1.195313-4.457032 5.242187-7.40625 9.65625-7.40625.851563 0 1.722656.113281 2.585937.34375l38.59375 10.339844c5.324219 1.425781 8.5 6.914062 7.074219 12.230468zm88.9375-100.289062-25.867188 96.511719c-1.429687 5.351562-6.925781 8.484374-12.230468 7.066406l-28.953125-7.765625c33.859375-125.140625 28.523437-108.414063 31.4375-115.695313 30.402343 8.15625 28.628906 7.652344 29.253906 7.875 4.910156 1.695313 7.703125 6.976563 6.359375 12.007813zm0 0"
      />
    </g>
    <g transform="matrix(1.0714285373687744 0 0 1.0714285373687744 55 102)" fill="#ffffff" id="L1_8">
      <path
        d="M8,14c3.519,0,6.432-2.614,6.92-6H54c0.553,0,1-0.447,1-1s-0.447-1-1-1H14.92C14.432,2.614,11.519,0,8,0   C4.14,0,1,3.141,1,7S4.14,14,8,14z M8,2c2.757,0,5,2.243,5,5s-2.243,5-5,5S3,9.757,3,7S5.243,2,8,2z"
      />
      <path
        d="M48,42c-3.519,0-6.432,2.614-6.92,6H2c-0.552,0-1,0.447-1,1s0.448,1,1,1h39.08c0.488,3.386,3.401,6,6.92,6   c3.859,0,7-3.141,7-7S51.859,42,48,42z M48,54c-2.757,0-5-2.243-5-5s2.243-5,5-5s5,2.243,5,5S50.757,54,48,54z"
      />
      <path
        d="M54,27H35.368c-0.396-3.602-3.455-6.414-7.161-6.414c-3.706,0-6.765,2.813-7.161,6.414H2c-0.552,0-1,0.447-1,1s0.448,1,1,1   h19.109c0.577,3.4,3.536,6,7.098,6c3.562,0,6.52-2.6,7.097-6H54c0.553,0,1-0.447,1-1S54.553,27,54,27z M28.207,33   C25.336,33,23,30.664,23,27.793s2.336-5.207,5.207-5.207s5.207,2.336,5.207,5.207S31.078,33,28.207,33z"
      />
    </g>
    <path
      d="M47,17c-7.168,0-13,5.832-13,13c0,4.634,2.444,8.698,6.104,11H19.896C23.556,38.698,26,34.634,26,30c0-7.168-5.832-13-13-13  S0,22.832,0,30s5.832,13,13,13h34c7.168,0,13-5.832,13-13S54.168,17,47,17z M2,30c0-6.065,4.935-11,11-11s11,4.935,11,11  s-4.935,11-11,11S2,36.065,2,30z M47,41c-6.065,0-11-4.935-11-11s4.935-11,11-11s11,4.935,11,11S53.065,41,47,41z"
      transform="matrix(1 0 0 1 295 285)"
      fill="#ffffff"
      id="L1_9"
    />
  </defs>
  <g fi:class="KUsePattern">
    <pattern id="pattern_L1_3" width="350" height="350" patternUnits="userSpaceOnUse">
      <use xlink:href="#L1_3" x="-350" y="-350" />
      <use xlink:href="#L1_3" x="0" y="-350" />
      <use xlink:href="#L1_3" x="350" y="-350" />
      <use xlink:href="#L1_3" x="-350" y="0" />
      <use xlink:href="#L1_3" x="0" y="0" />
      <use xlink:href="#L1_3" x="350" y="0" />
      <use xlink:href="#L1_3" x="-350" y="350" />
      <use xlink:href="#L1_3" x="0" y="350" />
      <use xlink:href="#L1_3" x="350" y="350" />
    </pattern>
    <rect x="0" y="0" width="100%" height="100%" fill="url(#pattern_L1_3)" />
  </g>
  <g fi:class="KUsePattern">
    <pattern id="pattern_L1_4" width="350" height="350" patternUnits="userSpaceOnUse">
      <use xlink:href="#L1_4" x="-350" y="-350" />
      <use xlink:href="#L1_4" x="0" y="-350" />
      <use xlink:href="#L1_4" x="350" y="-350" />
      <use xlink:href="#L1_4" x="-350" y="0" />
      <use xlink:href="#L1_4" x="0" y="0" />
      <use xlink:href="#L1_4" x="350" y="0" />
      <use xlink:href="#L1_4" x="-350" y="350" />
      <use xlink:href="#L1_4" x="0" y="350" />
      <use xlink:href="#L1_4" x="350" y="350" />
    </pattern>
    <rect x="0" y="0" width="100%" height="100%" fill="url(#pattern_L1_4)" />
  </g>
  <g fi:class="KUsePattern">
    <pattern id="pattern_L1_6" width="350" height="350" patternUnits="userSpaceOnUse">
      <use xlink:href="#L1_6" x="-350" y="-350" />
      <use xlink:href="#L1_6" x="0" y="-350" />
      <use xlink:href="#L1_6" x="350" y="-350" />
      <use xlink:href="#L1_6" x="-350" y="0" />
      <use xlink:href="#L1_6" x="0" y="0" />
      <use xlink:href="#L1_6" x="350" y="0" />
      <use xlink:href="#L1_6" x="-350" y="350" />
      <use xlink:href="#L1_6" x="0" y="350" />
      <use xlink:href="#L1_6" x="350" y="350" />
    </pattern>
    <rect x="0" y="0" width="100%" height="100%" fill="url(#pattern_L1_6)" />
  </g>
  <g fi:class="KUsePattern">
    <pattern id="pattern_L1_7" width="350" height="350" patternUnits="userSpaceOnUse">
      <use xlink:href="#L1_7" x="-350" y="-350" />
      <use xlink:href="#L1_7" x="0" y="-350" />
      <use xlink:href="#L1_7" x="350" y="-350" />
      <use xlink:href="#L1_7" x="-350" y="0" />
      <use xlink:href="#L1_7" x="0" y="0" />
      <use xlink:href="#L1_7" x="350" y="0" />
      <use xlink:href="#L1_7" x="-350" y="350" />
      <use xlink:href="#L1_7" x="0" y="350" />
      <use xlink:href="#L1_7" x="350" y="350" />
    </pattern>
    <rect x="0" y="0" width="100%" height="100%" fill="url(#pattern_L1_7)" />
  </g>
  <g fi:class="KUsePattern">
    <pattern id="pattern_L1_8" width="350" height="350" patternUnits="userSpaceOnUse">
      <use xlink:href="#L1_8" x="-350" y="-350" />
      <use xlink:href="#L1_8" x="0" y="-350" />
      <use xlink:href="#L1_8" x="350" y="-350" />
      <use xlink:href="#L1_8" x="-350" y="0" />
      <use xlink:href="#L1_8" x="0" y="0" />
      <use xlink:href="#L1_8" x="350" y="0" />
      <use xlink:href="#L1_8" x="-350" y="350" />
      <use xlink:href="#L1_8" x="0" y="350" />
      <use xlink:href="#L1_8" x="350" y="350" />
    </pattern>
    <rect x="0" y="0" width="100%" height="100%" fill="url(#pattern_L1_8)" />
  </g>
  <g fi:class="KUsePattern">
    <pattern id="pattern_L1_9" width="350" height="350" patternUnits="userSpaceOnUse">
      <use xlink:href="#L1_9" x="-350" y="-350" />
      <use xlink:href="#L1_9" x="0" y="-350" />
      <use xlink:href="#L1_9" x="350" y="-350" />
      <use xlink:href="#L1_9" x="-350" y="0" />
      <use xlink:href="#L1_9" x="0" y="0" />
      <use xlink:href="#L1_9" x="350" y="0" />
      <use xlink:href="#L1_9" x="-350" y="350" />
      <use xlink:href="#L1_9" x="0" y="350" />
      <use xlink:href="#L1_9" x="350" y="350" />
    </pattern>
    <rect x="0" y="0" width="100%" height="100%" fill="url(#pattern_L1_9)" />
  </g>
</svg>
