<svg xmlns="http://www.w3.org/2000/svg" xmlns:xlink="http://www.w3.org/1999/xlink"
     xmlns:fi="http://pattern.flaticon.com/"
     x="0"
     y="0"
     width="852"
     height="480"
     viewBox="0 0 852 480"
>
  <defs>
    <g transform="matrix(0.10534650087356567 0 0 0.10534650087356567 291 157)" fill="#ffffff"
       id="L1_3">
      <path
        d="m1.527344 52.246094 37.984375 66.46875c1.28125 2.246094 3.425781 3.871094 5.933593 4.5l35.4375 8.859375 121.542969 121.542969 13.429688-13.425782-123.445313-123.441406c-1.214844-1.21875-2.738281-2.082031-4.40625-2.5l-34.050781-8.542969-32.339844-56.625 27.726563-27.726562 56.648437 32.371093 8.546875 34.050782c.414063 1.671875 1.28125 3.199218 2.496094 4.414062l123.445312 123.445313 13.425782-13.429688-121.542969-121.542969-8.859375-35.417968c-.628906-2.511719-2.253906-4.660156-4.5-5.945313l-66.472656-37.980469c-3.707032-2.109374-8.371094-1.484374-11.394532 1.527344l-37.980468 37.984375c-3.0546878 3.003907-3.71875 7.675781-1.625 11.414063zm0 0"
      />
      <path
        d="m396.3125 187.144531-208.902344 208.90625-13.429687-13.429687 208.90625-208.902344zm0 0"
      />
      <path
        d="m150.847656 403.441406c-1.71875-2.859375-4.804687-4.605468-8.140625-4.605468h-56.972656c-3.332031 0-6.421875 1.746093-8.136719 4.605468l-28.488281 47.476563c-1.808594 3.007812-1.808594 6.769531 0 9.78125l28.488281 47.476562c1.714844 2.855469 4.804688 4.605469 8.136719 4.605469h56.972656c3.335938 0 6.421875-1.75 8.140625-4.605469l28.484375-47.476562c1.808594-3.011719 1.808594-6.773438 0-9.78125zm-13.511718 90.347656h-46.226563l-22.789063-37.980468 22.789063-37.984375h46.226563l22.789062 37.984375zm0 0"
      />
      <path
        d="m456.0625 227.914062c62.714844.210938 113.730469-50.460937 113.941406-113.175781.03125-9.546875-1.140625-19.054687-3.488281-28.308593-1.265625-5.089844-6.417969-8.1875-11.507813-6.921876-1.671874.417969-3.195312 1.28125-4.414062 2.496094l-59.109375 59.070313-46.898437-15.628907-15.640626-46.886718 59.109376-59.121094c3.707031-3.710938 3.703124-9.722656-.007813-13.429688-1.222656-1.222656-2.761719-2.089843-4.445313-2.503906-60.820312-15.402344-122.605468 21.414063-138.007812 82.230469-2.339844 9.226563-3.507812 18.710937-3.476562 28.230469.023437 7.476562.792968 14.929687 2.308593 22.25l-207.957031 207.953125c-7.320312-1.511719-14.773438-2.28125-22.246094-2.308594-62.933594 0-113.949218 51.015625-113.949218 113.949219 0 62.929687 51.015624 113.945312 113.949218 113.945312 62.929688 0 113.945313-51.015625 113.945313-113.945312-.023438-7.476563-.796875-14.929688-2.308594-22.25l49.785156-49.785156 21.773438 21.773437c3.710937 3.707031 9.71875 3.707031 13.429687 0l4.746094-4.75c4.164062-4.136719 10.894531-4.136719 15.058594 0 4.160156 4.148437 4.167968 10.882813.019531 15.042969-.003906.003906-.011719.011718-.019531.019531l-4.746094 4.746094c-3.707031 3.707031-3.707031 9.71875 0 13.425781l113.273438 113.273438c29.792968 30.066406 78.316406 30.285156 108.382812.492187 30.0625-29.792969 30.28125-78.320313.488281-108.382813-.160156-.164062-.324219-.328124-.488281-.492187l-113.273438-113.269531c-3.707031-3.707032-9.71875-3.707032-13.425781 0l-4.746093 4.746094c-4.167969 4.140624-10.894532 4.140624-15.0625 0-4.15625-4.148438-4.167969-10.882813-.019532-15.039063.007813-.007813.015625-.011719.019532-.019531l4.75-4.75c3.707031-3.707032 3.707031-9.71875 0-13.425782l-21.773438-21.773437 49.785156-49.785156c7.320313 1.511719 14.773438 2.285156 22.246094 2.308593zm37.308594 322.851563c-6.898438-.011719-13.738282-1.257813-20.195313-3.683594l74.160157-74.164062c11.191406 29.769531-3.867188 62.972656-33.636719 74.164062-6.496094 2.441407-13.382813 3.691407-20.328125 3.683594zm-107.574219-246.792969c-10.515625 12.542969-8.867187 31.238282 3.675781 41.75 11.023438 9.238282 27.089844 9.230469 38.101563-.027344l106.5625 106.65625c1.15625 1.160157 2.238281 2.382813 3.285156 3.625l-81.1875 81.1875c-1.246094-1.042968-2.46875-2.125-3.628906-3.285156l-106.644531-106.652344c10.515624-12.542968 8.867187-31.238281-3.675782-41.75-11.023437-9.242187-27.09375-9.230468-38.105468.023438l-15.191407-15.191406 81.613281-81.492188zm38.34375-95.503906-215.410156 215.367188c-2.363281 2.359374-3.3125 5.785156-2.507813 9.023437 13.027344 51.160156-17.886718 103.195313-69.050781 116.21875-51.160156 13.027344-103.195313-17.886719-116.222656-69.050781-13.023438-51.160156 17.890625-103.195313 69.054687-116.222656 15.476563-3.9375 31.691406-3.9375 47.167969 0 3.238281.792968 6.65625-.15625 9.023437-2.503907l215.359376-215.371093c2.359374-2.359376 3.308593-5.785157 2.496093-9.019532-12.9375-50.5625 17.5625-102.039062 68.125-114.980468 9.554688-2.441407 19.4375-3.378907 29.28125-2.765626l-50.089843 50.109376c-2.542969 2.539062-3.433594 6.300781-2.296876 9.710937l18.988282 56.976563c.949218 2.832031 3.175781 5.058593 6.011718 6l56.976563 18.992187c3.40625 1.136719 7.167969.25 9.710937-2.289063l50.089844-50.089843c.113282 1.8125.171875 3.605469.171875 5.390625.265625 52.175781-41.8125 94.6875-93.988281 94.957031-8.066406.039063-16.105469-.953125-23.917969-2.953125-3.238281-.808594-6.664062.136719-9.023437 2.496094h.050781zm0 0"
      />
      <path
        d="m491.273438 477.578125-13.429688 13.429687-94.953125-94.953124 13.425781-13.429688zm0 0"
      />
    </g>
    <g transform="matrix(1 0 0 1 225 34)" fill="#ffffff" id="L1_4">
      <path
        d="M10,25.465h13c0.553,0,1-0.448,1-1s-0.447-1-1-1H10c-0.553,0-1,0.448-1,1S9.447,25.465,10,25.465z"
      />
      <path
        d="M36,29.465H10c-0.553,0-1,0.448-1,1s0.447,1,1,1h26c0.553,0,1-0.448,1-1S36.553,29.465,36,29.465z"
      />
      <path
        d="M36,35.465H10c-0.553,0-1,0.448-1,1s0.447,1,1,1h26c0.553,0,1-0.448,1-1S36.553,35.465,36,35.465z"
      />
      <path
        d="M54.072,2.535L19.93,2.465c-3.27,0-5.93,2.66-5.93,5.93v5.124l-8.07,0.017c-3.27,0-5.93,2.66-5.93,5.93v21.141   c0,3.27,2.66,5.929,5.93,5.929H12v10c0,0.413,0.254,0.784,0.64,0.933c0.117,0.045,0.239,0.067,0.36,0.067   c0.276,0,0.547-0.115,0.74-0.327l9.704-10.675l16.626-0.068c3.27,0,5.93-2.66,5.93-5.929v-0.113l5.26,5.786   c0.193,0.212,0.464,0.327,0.74,0.327c0.121,0,0.243-0.022,0.36-0.067c0.386-0.149,0.64-0.52,0.64-0.933v-10h1.07   c3.27,0,5.93-2.66,5.93-5.929V8.465C60,5.196,57.341,2.536,54.072,2.535z M44,40.536c0,2.167-1.763,3.929-3.934,3.929l-17.07,0.07   c-0.28,0.001-0.548,0.12-0.736,0.327L14,53.949v-8.414c0-0.552-0.447-1-1-1H5.93c-2.167,0-3.93-1.763-3.93-3.929V19.465   c0-2.167,1.763-3.93,3.932-3.93l9.068-0.019c0,0,0,0,0,0c0.001,0,0.001,0,0.002,0l25.068-0.052c2.167,0,3.93,1.763,3.93,3.93   v18.441V40.536z M58,29.606c0,2.167-1.763,3.929-3.93,3.929H52c-0.553,0-1,0.448-1,1v8.414l-5-5.5V19.395   c0-3.27-2.66-5.93-5.932-5.93L16,13.514v-5.12c0-2.167,1.763-3.93,3.928-3.93l34.141,0.07c0.001,0,0.001,0,0.002,0   c2.167,0,3.93,1.763,3.93,3.93V29.606z"
      />
    </g>
    <g transform="matrix(0.1171872690320015 0 0 0.1171872690320015 65 -13)" fill="#ffffff"
       id="L1_6">
      <path
        d="m131.21875 216.835938c2.632812 0 5.210938-1.070313 7.070312-2.929688 1.859376-1.863281 2.929688-4.441406 2.929688-7.070312 0-2.632813-1.070312-5.210938-2.929688-7.070313-1.859374-1.859375-4.4375-2.929687-7.070312-2.929687-2.640625 0-5.207031 1.070312-7.070312 2.929687-1.859376 1.859375-2.929688 4.4375-2.929688 7.070313 0 2.628906 1.070312 5.207031 2.929688 7.070312 1.863281 1.859375 4.441406 2.929688 7.070312 2.929688zm0 0"
      />
      <path
        d="m274.46875 203.59375c-1.867188-1.859375-4.4375-2.929688-7.078125-2.929688-2.628906 0-5.210937 1.070313-7.070313 2.929688-1.859374 1.859375-2.929687 4.441406-2.929687 7.070312 0 2.628907 1.070313 5.210938 2.929687 7.070313 1.859376 1.859375 4.441407 2.929687 7.070313 2.929687 2.640625 0 5.210937-1.070312 7.078125-2.929687 1.859375-1.859375 2.921875-4.429687 2.921875-7.070313 0-2.628906-1.0625-5.210937-2.921875-7.070312zm0 0"
      />
      <path
        d="m302.398438 185.664062c2.632812 0 5.210937-1.070312 7.070312-2.929687s2.921875-4.441406 2.921875-7.070313c0-2.628906-1.0625-5.210937-2.921875-7.070312s-4.4375-2.929688-7.070312-2.929688c-2.636719 0-5.21875 1.070313-7.078126 2.929688-1.859374 1.859375-2.929687 4.441406-2.929687 7.070312 0 2.628907 1.070313 5.210938 2.929687 7.070313 1.859376 1.859375 4.441407 2.929687 7.078126 2.929687zm0 0"
      />
      <path
        d="m482 245.996094h-27.902344l49.117188-49.117188c5.664062-5.667968 8.785156-13.203125 8.785156-21.214844 0-8.011718-3.121094-15.546874-8.785156-21.210937l-44.550782-44.550781c-3.902343-3.902344-10.234374-3.902344-14.140624 0-5.664063 5.667968-13.199219 8.789062-21.210938 8.789062-8.015625 0-15.546875-3.121094-21.214844-8.789062-5.667968-5.664063-8.785156-13.199219-8.785156-21.210938 0-8.015625 3.121094-15.546875 8.785156-21.214844 1.875-1.875 2.929688-4.417968 2.929688-7.070312s-1.054688-5.195312-2.929688-7.070312l-44.546875-44.546876c-5.667969-5.667968-13.199219-8.789062-21.214843-8.789062-8.011719 0-15.546876 3.121094-21.210938 8.789062l-165.164062 165.160157c-3.90625 3.902343-3.90625 10.234375 0 14.140625s10.238281 3.90625 14.144531 0l165.160156-165.160156c1.890625-1.890626 4.398437-2.929688 7.070313-2.929688 2.671874 0 5.183593 1.039062 7.070312 2.929688l38.183594 38.179687c-5.386719 8.109375-8.277344 17.625-8.277344 27.582031 0 13.355469 5.199219 25.910156 14.644531 35.355469 9.445313 9.441406 22 14.644531 35.355469 14.644531 9.957031 0 19.46875-2.890625 27.582031-8.277344l38.179688 38.179688c3.898437 3.898438 3.898437 10.242188 0 14.140625l-63.261719 63.261719h-43.839844l32.855469-32.855469c3.902344-3.90625 3.902344-10.238281 0-14.140625l-101.824219-101.824219c-3.90625-3.90625-10.238281-3.90625-14.144531 0l-148.820313 148.820313h-120.039062c-16.542969 0-30 13.457031-30 30v63c0 5.519531 4.476562 10 10 10 16.542969 0 30 13.457031 30 30 0 16.539062-13.457031 30-30 30-5.523438 0-10 4.476562-10 10v63c0 16.539062 13.457031 30 30 30h452c16.542969 0 30-13.460938 30-30v-63c0-5.523438-4.476562-10-10-10-16.542969 0-30-13.460938-30-30 0-16.542969 13.457031-30 30-30 5.523438 0 10-4.480469 10-10v-63c0-16.542969-13.457031-30-30-30zm-176.070312-127.609375 87.683593 87.683593-39.925781 39.925782h-39.597656l29.316406-29.320313c3.90625-3.902343 3.90625-10.234375 0-14.140625-3.902344-3.90625-10.234375-3.90625-14.140625 0l-43.460937 43.457032h-107.480469zm186.070312 211.613281c-22.792969 4.644531-40 24.847656-40 48.996094 0 24.144531 17.207031 44.347656 40 48.996094v54.003906c0 5.511718-4.484375 10-10 10h-452c-5.515625 0-10-4.488282-10-10v-54.003906c22.792969-4.648438 40-24.851563 40-48.996094 0-24.148438-17.207031-44.347656-40-48.996094v-54.003906c0-5.515625 4.484375-10 10-10h452c5.515625 0 10 4.484375 10 10zm0 0"
      />
      <path
        d="m213.570312 362.066406c1.859376-1.863281 2.929688-4.441406 2.929688-7.070312 0-2.632813-1.070312-5.210938-2.929688-7.070313-1.859374-1.859375-4.441406-2.929687-7.070312-2.929687s-5.210938 1.070312-7.070312 2.929687c-1.859376 1.859375-2.929688 4.4375-2.929688 7.070313 0 2.628906 1.070312 5.207031 2.929688 7.070312 1.859374 1.859375 4.441406 2.929688 7.070312 2.929688s5.210938-1.070313 7.070312-2.929688zm0 0"
      />
      <path
        d="m312.570312 362.066406c1.859376-1.863281 2.929688-4.441406 2.929688-7.070312 0-2.632813-1.070312-5.210938-2.929688-7.070313-1.859374-1.859375-4.441406-2.929687-7.070312-2.929687s-5.210938 1.070312-7.070312 2.929687c-1.859376 1.859375-2.929688 4.4375-2.929688 7.070313 0 2.628906 1.070312 5.207031 2.929688 7.070312 1.859374 1.859375 4.441406 2.929688 7.070312 2.929688s5.210938-1.070313 7.070312-2.929688zm0 0"
      />
      <path
        d="m263.070312 362.066406c1.859376-1.863281 2.929688-4.441406 2.929688-7.070312 0-2.632813-1.070312-5.210938-2.929688-7.070313-1.859374-1.859375-4.441406-2.929687-7.070312-2.929687s-5.210938 1.070312-7.070312 2.929687c-1.859376 1.859375-2.929688 4.4375-2.929688 7.070313 0 2.628906 1.070312 5.207031 2.929688 7.070312 1.859374 1.859375 4.441406 2.929688 7.070312 2.929688s5.210938-1.070313 7.070312-2.929688zm0 0"
      />
      <path
        d="m157 364.996094c2.628906 0 5.210938-1.070313 7.070312-2.929688 1.859376-1.863281 2.929688-4.441406 2.929688-7.070312 0-2.632813-1.070312-5.210938-2.929688-7.070313-1.859374-1.859375-4.441406-2.929687-7.070312-2.929687s-5.210938 1.070312-7.070312 2.929687c-1.859376 1.859375-2.929688 4.4375-2.929688 7.070313 0 2.628906 1.070312 5.207031 2.929688 7.070312 1.859374 1.859375 4.441406 2.929688 7.070312 2.929688zm0 0"
      />
      <path
        d="m362.070312 362.066406c1.859376-1.863281 2.929688-4.441406 2.929688-7.070312 0-2.632813-1.070312-5.210938-2.929688-7.070313-1.859374-1.859375-4.441406-2.929687-7.070312-2.929687s-5.210938 1.070312-7.070312 2.929687c-1.859376 1.859375-2.929688 4.4375-2.929688 7.070313 0 2.628906 1.070312 5.207031 2.929688 7.070312 1.859374 1.859375 4.441406 2.929688 7.070312 2.929688s5.210938-1.070313 7.070312-2.929688zm0 0"
      />
      <path
        d="m157 412.996094h198c5.523438 0 10-4.480469 10-10 0-5.523438-4.476562-10-10-10h-198c-5.523438 0-10 4.476562-10 10 0 5.519531 4.476562 10 10 10zm0 0"
      />
      <path
        d="m193.320312 440.996094c-2.628906 0-5.210937 1.070312-7.070312 2.929687s-2.929688 4.4375-2.929688 7.070313c0 2.628906 1.070313 5.207031 2.929688 7.070312 1.859375 1.859375 4.441406 2.929688 7.070312 2.929688 2.640626 0 5.210938-1.070313 7.070313-2.929688 1.871094-1.863281 2.929687-4.441406 2.929687-7.070312 0-2.632813-1.058593-5.210938-2.929687-7.070313-1.859375-1.859375-4.429687-2.929687-7.070313-2.929687zm0 0"
      />
      <path
        d="m408 296.996094h-304c-5.523438 0-10 4.476562-10 10v144c0 5.519531 4.476562 10 10 10h41.65625c5.523438 0 10-4.480469 10-10 0-5.523438-4.476562-10-10-10h-31.65625v-124h284v124h-162.34375c-5.523438 0-10 4.476562-10 10 0 5.519531 4.476562 10 10 10h172.34375c5.523438 0 10-4.480469 10-10v-144c0-5.523438-4.476562-10-10-10zm0 0"
      />
    </g>
    <g transform="matrix(0.125 0 0 0.125 133 211)" fill="#ffffff"
       id="L1_7">
      <path
        d="M296,280h-8.8c-3.31,0.006-6.271-2.059-7.408-5.168c-0.976-2.56-2.024-5.064-3.152-7.544 c-1.402-3.016-0.762-6.587,1.6-8.928l6.272-6.28c9.311-9.393,9.294-24.541-0.04-33.912l-22.608-22.608 c-9.383-9.328-24.537-9.328-33.92,0l-6.272,6.264c-2.346,2.353-5.911,2.992-8.928,1.6c-2.48-1.128-4.984-2.176-7.552-3.2 c-3.125-1.129-5.204-4.101-5.192-7.424V184c0-13.255-10.745-24-24-24h-32c-13.255,0-24,10.745-24,24v8.8 c0.006,3.31-2.059,6.271-5.168,7.408c-2.56,0.976-5.064,2.024-7.544,3.152c-3.017,1.395-6.583,0.756-8.928-1.6l-6.28-6.272 c-9.382-9.322-24.53-9.322-33.912,0l-22.608,22.68c-9.328,9.383-9.328,24.537,0,33.92l6.264,6.272 c2.362,2.341,3.002,5.912,1.6,8.928c-1.128,2.48-2.176,4.984-3.16,7.552c-1.145,3.127-4.134,5.194-7.464,5.16H24 c-13.255,0-24,10.745-24,24v32c0,13.255,10.745,24,24,24h8.8c3.31-0.006,6.271,2.059,7.408,5.168 c0.976,2.56,2.024,5.064,3.152,7.544c1.402,3.016,0.762,6.587-1.6,8.928l-6.272,6.28c-9.322,9.382-9.322,24.53,0,33.912 l22.608,22.608c9.383,9.328,24.537,9.328,33.92,0l6.272-6.264c2.346-2.353,5.911-2.992,8.928-1.6 c2.48,1.128,4.984,2.176,7.552,3.2c3.141,1.116,5.238,4.091,5.232,7.424v8.8c0,13.255,10.745,24,24,24h32 c13.255,0,24-10.745,24-24v-8.8c-0.006-3.31,2.059-6.271,5.168-7.408c2.56-0.976,5.064-2.024,7.544-3.152 c3.017-1.395,6.583-0.756,8.928,1.6l6.28,6.272c9.395,9.307,24.539,9.289,33.912-0.04l22.608-22.608 c9.328-9.383,9.328-24.537,0-33.92l-6.264-6.272c-2.362-2.341-3.002-5.912-1.6-8.928c1.128-2.48,2.176-4.984,3.2-7.552 c1.129-3.125,4.101-5.204,7.424-5.192h8.8c13.255,0,24-10.745,24-24v-32C320,290.745,309.255,280,296,280z M304,336 c0,4.418-3.582,8-8,8h-8.8c-9.945,0.037-18.845,6.184-22.4,15.472c-0.848,2.24-1.765,4.445-2.752,6.616 c-4.113,9.08-2.205,19.756,4.8,26.848l6.256,6.264c3.126,3.122,3.129,8.188,0.006,11.314c-0.002,0.002-0.004,0.004-0.006,0.006 l-22.608,22.608c-3.124,3.123-8.188,3.123-11.312,0l-6.272-6.264c-7.089-7.011-17.769-8.92-26.848-4.8 c-2.168,0.984-4.376,1.904-6.6,2.752C190.183,428.37,184.04,437.262,184,447.2v8.8c0,4.418-3.582,8-8,8h-32c-4.418,0-8-3.582-8-8 v-8.8c-0.037-9.945-6.184-18.845-15.472-22.4c-2.24-0.848-4.445-1.765-6.616-2.752c-9.08-4.111-19.755-2.202-26.848,4.8 l-6.264,6.256c-3.122,3.126-8.188,3.129-11.314,0.006c-0.002-0.002-0.004-0.004-0.006-0.006L46.872,410.52 c-3.123-3.124-3.123-8.188,0-11.312l6.264-6.272c7.005-7.092,8.913-17.768,4.8-26.848c-0.984-2.168-1.904-4.376-2.752-6.6 C51.638,350.197,42.744,344.044,32.8,344H24c-4.418,0-8-3.582-8-8v-32c0-4.418,3.582-8,8-8h8.8 c9.945-0.037,18.845-6.184,22.4-15.472c0.848-2.24,1.765-4.445,2.752-6.616c4.113-9.08,2.204-19.756-4.8-26.848l-6.288-6.264 c-3.126-3.122-3.129-8.188-0.006-11.314c0.002-0.002,0.004-0.004,0.006-0.006l22.608-22.608c3.124-3.123,8.188-3.123,11.312,0 l6.272,6.264c7.089,7.011,17.769,8.92,26.848,4.8c2.168-0.984,4.376-1.904,6.6-2.752c9.294-3.543,15.451-12.438,15.496-22.384V184 c0-4.418,3.582-8,8-8h32c4.418,0,8,3.582,8,8v8.8c0.037,9.945,6.184,18.845,15.472,22.4c2.24,0.848,4.445,1.765,6.616,2.752 c9.079,4.12,19.759,2.211,26.848-4.8l6.264-6.256c3.136-3.102,8.184-3.102,11.32,0l22.608,22.608 c3.123,3.124,3.123,8.188,0,11.312l-6.264,6.272c-7.004,7.092-8.913,17.768-4.8,26.848c0.984,2.168,1.904,4.376,2.752,6.6 c3.554,9.281,12.446,15.424,22.384,15.464h8.8c4.418,0,8,3.582,8,8V336z"
      />
      <path
        d="M231.84,316.8c-0.08-1.92-0.216-3.832-0.448-5.736c-0.256-2.048-0.56-4.08-0.984-6.072c-0.28-1.304-0.648-2.592-1-3.888    c-0.448-1.648-0.952-3.272-1.512-4.872c-0.392-1.112-0.8-2.216-1.216-3.312c-1.03-2.562-2.208-5.063-3.528-7.488    c-0.104-0.184-0.168-0.384-0.272-0.568c-2.081-3.704-4.491-7.215-7.2-10.488c-0.232-0.288-0.496-0.56-0.736-0.84    c-1.104-1.304-2.24-2.568-3.432-3.776c-0.624-0.648-1.28-1.256-1.936-1.88c-0.8-0.744-1.6-1.48-2.4-2.184    c-0.971-0.843-1.96-1.659-2.968-2.448l-1.312-0.976C190.517,253,175.466,247.992,160,248c-0.8,0-1.6,0.12-2.4,0.152    c-1.704,0.048-3.416,0.144-5.136,0.32c-0.904,0.096-1.816,0.2-2.72,0.328c-2.608,0.343-5.196,0.827-7.752,1.448    c-38.521,9.954-61.679,49.252-51.725,87.773c6.56,25.384,26.392,45.2,51.781,51.739c0.128,0,0.264,0.04,0.4,0.072    c2.763,0.689,5.562,1.224,8.384,1.6c1.864,0.232,3.728,0.28,5.6,0.368c1.248,0.064,2.4,0.248,3.704,0.248    c2.28,0,4.648-0.152,7.064-0.392c0.256,0,0.512-0.072,0.8-0.104c1.944-0.216,3.912-0.504,5.92-0.904    c0.8-0.152,1.544-0.352,2.312-0.528c1.408-0.328,2.808-0.672,4.248-1.096c1.12-0.336,2.208-0.728,3.304-1.112    c1.096-0.384,2.232-0.8,3.368-1.232c1.136-0.432,2.088-0.928,3.12-1.408c1.344-0.616,2.68-1.224,4-1.944h0.048    c7.466-3.997,14.362-8.977,20.504-14.808c1.659-1.548,3.102-3.314,4.288-5.248c6.244-10.01,10.346-21.205,12.048-32.88    c0.224-1.544,0.424-3.088,0.544-4.664c0.112-1.448,0.192-2.888,0.224-4.328c0-0.456,0.064-0.888,0.064-1.344    C232,318.928,231.888,317.888,231.84,316.8z M215.896,322.04c0,0.664-0.056,1.328-0.096,1.984    c-0.144,1.936-0.392,3.872-0.72,5.816c-2.99,16.633-13.317,31.033-28.112,39.2c-0.992,0.52-1.968,1.008-2.944,1.456l-0.664,0.32    c-4.648,2.11-9.554,3.595-14.592,4.416c-0.352,0.056-0.712,0.12-1.072,0.168c-1,0.144-1.984,0.264-2.96,0.352    c-1.288,0.112-2.584,0.176-3.904,0.2c-0.56,0-1.112,0-1.672,0c-1.893-0.022-3.783-0.139-5.664-0.352l-0.96-0.112    c-2.2-0.288-4.382-0.699-6.536-1.232c-29.962-7.669-48.034-38.175-40.366-68.137c5.067-19.798,20.517-35.264,40.31-40.351l0-0.008    c4.596-1.159,9.316-1.751,14.056-1.76c2.287,0.013,4.572,0.168,6.84,0.464c0.608,0.072,1.208,0.184,1.808,0.272    c1.728,0.272,3.44,0.616,5.128,1.048c0.552,0.144,1.104,0.272,1.648,0.424c4.254,1.228,8.349,2.952,12.2,5.136    c0.616,0.36,1.216,0.736,1.824,1.112c1.264,0.8,2.488,1.6,3.696,2.512c0.648,0.472,1.304,0.936,1.928,1.44    c1.57,1.254,3.073,2.589,4.504,4c0.568,0.576,1.088,1.208,1.64,1.808c0.92,1,1.816,2.024,2.672,3.104    c0.592,0.744,1.16,1.512,1.72,2.288c0.8,1.152,1.6,2.352,2.32,3.568c0.4,0.664,0.8,1.312,1.208,1.992    c1.032,1.899,1.951,3.857,2.752,5.864c0.32,0.8,0.592,1.6,0.88,2.4c0.52,1.472,0.968,2.96,1.36,4.464    c0.2,0.8,0.424,1.512,0.592,2.288c0.467,2.162,0.806,4.35,1.016,6.552c0.048,0.584,0.048,1.176,0.088,1.76    C215.936,318.336,215.968,320.184,215.896,322.04z"
      />
      <path
        d="M456,168h-25.16c-3.355,0.034-6.356-2.079-7.456-5.248c-2.481-7.431-5.483-14.679-8.984-21.688 c-1.486-3.027-0.867-6.666,1.536-9.032l17.84-17.864c9.364-9.371,9.364-24.557,0-33.928L399.76,46.28 c-9.371-9.364-24.557-9.364-33.928,0L348,64.104c-2.363,2.402-5.997,3.024-9.024,1.544c-7.01-3.519-14.26-6.537-21.696-9.032 c-3.182-1.089-5.31-4.093-5.28-7.456V24c0-13.255-10.745-24-24-24h-48c-13.255,0-24,10.745-24,24v25.16 c0.034,3.355-2.078,6.356-5.248,7.456c-7.432,2.494-14.68,5.51-21.688,9.024c-3.027,1.491-6.668,0.872-9.032-1.536l-17.864-17.84 c-9.382-9.337-24.546-9.337-33.928,0L94.288,80.216c-9.369,9.372-9.369,24.564,0,33.936l26.232,26.28 c3.173,3.074,8.238,2.994,11.312-0.18c2.999-3.096,3.006-8.012,0.016-11.116L105.6,102.864c-3.123-3.124-3.123-8.188,0-11.312 L139.552,57.6c3.124-3.123,8.188-3.123,11.312,0l17.872,17.84c7.231,7.274,18.311,9.092,27.488,4.512 c6.337-3.173,12.889-5.897,19.608-8.152c9.698-3.283,16.21-12.401,16.168-22.64V24c0-4.418,3.582-8,8-8h48c4.418,0,8,3.582,8,8 v25.16c-0.041,10.237,6.471,19.352,16.168,22.632c6.722,2.256,13.277,4.982,19.616,8.16c9.179,4.556,20.244,2.736,27.48-4.52 L377.136,57.6c3.124-3.123,8.188-3.123,11.312,0L422.4,91.56c3.118,3.123,3.118,8.181,0,11.304l-17.84,17.872 c-7.267,7.235-9.084,18.31-4.512,27.488c3.173,6.337,5.897,12.889,8.152,19.608c3.281,9.7,12.4,16.212,22.64,16.168H456 c4.418,0,8,3.582,8,8v48c0,4.418-3.582,8-8,8h-25.16c-10.237-0.041-19.352,6.471-22.632,16.168 c-2.255,6.722-4.982,13.277-8.16,19.616c-4.564,9.178-2.743,20.247,4.52,27.48l17.84,17.872c3.123,3.124,3.123,8.188,0,11.312 L388.44,374.4c-3.123,3.118-8.181,3.118-11.304,0l-26.288-26.232c-3.074-3.174-8.139-3.254-11.312-0.18 c-3.174,3.074-3.254,8.139-0.18,11.312c0.064,0.066,0.13,0.132,0.196,0.196l26.28,26.232c9.371,9.364,24.557,9.364,33.928,0 l33.952-33.944c9.369-9.372,9.369-24.564,0-33.936L415.896,300c-2.4-2.364-3.021-5.997-1.544-9.024 c3.519-7.01,6.537-14.26,9.032-21.696c1.089-3.182,4.093-5.31,7.456-5.28H456c13.255,0,24-10.745,24-24v-48 C480,178.745,469.255,168,456,168z"
      />
      <path
        d="M337.536,142.464c-40.638-40.553-106.434-40.553-147.072,0c-3.069,3.178-2.981,8.243,0.197,11.312 c3.1,2.994,8.015,2.994,11.115,0c34.135-34.596,89.852-34.969,124.448-0.834c34.596,34.135,34.969,89.852,0.834,124.448 c-0.276,0.28-0.554,0.558-0.834,0.834c-3.178,3.07-3.266,8.134-0.196,11.312c3.07,3.178,8.134,3.266,11.312,0.196 c0.066-0.064,0.132-0.13,0.196-0.196C378.089,248.898,378.089,183.102,337.536,142.464z"
      />
    </g>
    <g transform="matrix(1.0714285373687744 0 0 1.0714285373687744 55 102)" fill="#ffffff"
       id="L1_8">
      <path
        d="M8,14c3.519,0,6.432-2.614,6.92-6H54c0.553,0,1-0.447,1-1s-0.447-1-1-1H14.92C14.432,2.614,11.519,0,8,0 C4.14,0,1,3.141,1,7S4.14,14,8,14z M8,2c2.757,0,5,2.243,5,5s-2.243,5-5,5S3,9.757,3,7S5.243,2,8,2z"
      />
      <path
        d="M48,42c-3.519,0-6.432,2.614-6.92,6H2c-0.552,0-1,0.447-1,1s0.448,1,1,1h39.08c0.488,3.386,3.401,6,6.92,6 c3.859,0,7-3.141,7-7S51.859,42,48,42z M48,54c-2.757,0-5-2.243-5-5s2.243-5,5-5s5,2.243,5,5S50.757,54,48,54z"
      />
      <path
        d="M54,27H35.368c-0.396-3.602-3.455-6.414-7.161-6.414c-3.706,0-6.765,2.813-7.161,6.414H2c-0.552,0-1,0.447-1,1s0.448,1,1,1 h19.109c0.577,3.4,3.536,6,7.098,6c3.562,0,6.52-2.6,7.097-6H54c0.553,0,1-0.447,1-1S54.553,27,54,27z M28.207,33 C25.336,33,23,30.664,23,27.793s2.336-5.207,5.207-5.207s5.207,2.336,5.207,5.207S31.078,33,28.207,33z"
      />
    </g>
    <path
      d="M49,2H22a.982.982,0,0,0-.352.071A13.012,13.012,0,0,0,10.051,14H3a1,1,0,0,0-1,1V33a1,1,0,0,0,1,1H9.382L7.553,37.658A3,3,0,0,0,10.236,42H29.764A3.013,3.013,0,0,0,31,41.735V61a1,1,0,0,0,1,1H42a1,1,0,0,0,1-1V34H61a1,1,0,0,0,1-1V15A13.015,13.015,0,0,0,49,2ZM23,4A10.984,10.984,0,0,1,34,15V32H30V15a1,1,0,0,0-1-1H12.051A11.01,11.01,0,0,1,23,4ZM5.5,32l7.448-6.655L14,26.289a3,3,0,0,0,4,0l1.054-.944L26.5,32Zm15.058-8L28,17.342V30.656Zm-3.888.794a1,1,0,0,1-1.334,0L5.5,16h21ZM11.445,24,4,30.656V17.342ZM29.764,40H10.236a1,1,0,0,1-.894-1.447L11.618,34H33.382l-2.724,5.447A1,1,0,0,1,29.764,40ZM41,60H33V39.236L35.618,34H41ZM60,32H36V15A12.915,12.915,0,0,0,29.924,4H49A11.013,11.013,0,0,1,60,15Z"
      transform="matrix(0.9375 0 0 0.9375 295 285)"
      fill="#ffffff"
      id="L1_9"
    />
  </defs>
  <g fi:class="KUsePattern">
    <pattern id="pattern_L1_3" width="350" height="350" patternUnits="userSpaceOnUse">
      <use xlink:href="#L1_3" x="-350" y="-350"/>
      <use xlink:href="#L1_3" x="0" y="-350"/>
      <use xlink:href="#L1_3" x="350" y="-350"/>
      <use xlink:href="#L1_3" x="-350" y="0"/>
      <use xlink:href="#L1_3" x="0" y="0"/>
      <use xlink:href="#L1_3" x="350" y="0"/>
      <use xlink:href="#L1_3" x="-350" y="350"/>
      <use xlink:href="#L1_3" x="0" y="350"/>
      <use xlink:href="#L1_3" x="350" y="350"/>
    </pattern>
    <rect x="0" y="0" width="100%" height="100%" fill="url(#pattern_L1_3)"/>
  </g>
  <g fi:class="KUsePattern">
    <pattern id="pattern_L1_4" width="350" height="350" patternUnits="userSpaceOnUse">
      <use xlink:href="#L1_4" x="-350" y="-350"/>
      <use xlink:href="#L1_4" x="0" y="-350"/>
      <use xlink:href="#L1_4" x="350" y="-350"/>
      <use xlink:href="#L1_4" x="-350" y="0"/>
      <use xlink:href="#L1_4" x="0" y="0"/>
      <use xlink:href="#L1_4" x="350" y="0"/>
      <use xlink:href="#L1_4" x="-350" y="350"/>
      <use xlink:href="#L1_4" x="0" y="350"/>
      <use xlink:href="#L1_4" x="350" y="350"/>
    </pattern>
    <rect x="0" y="0" width="100%" height="100%" fill="url(#pattern_L1_4)"/>
  </g>
  <g fi:class="KUsePattern">
    <pattern id="pattern_L1_6" width="350" height="350" patternUnits="userSpaceOnUse">
      <use xlink:href="#L1_6" x="-350" y="-350"/>
      <use xlink:href="#L1_6" x="0" y="-350"/>
      <use xlink:href="#L1_6" x="350" y="-350"/>
      <use xlink:href="#L1_6" x="-350" y="0"/>
      <use xlink:href="#L1_6" x="0" y="0"/>
      <use xlink:href="#L1_6" x="350" y="0"/>
      <use xlink:href="#L1_6" x="-350" y="350"/>
      <use xlink:href="#L1_6" x="0" y="350"/>
      <use xlink:href="#L1_6" x="350" y="350"/>
    </pattern>
    <rect x="0" y="0" width="100%" height="100%" fill="url(#pattern_L1_6)"/>
  </g>
  <g fi:class="KUsePattern">
    <pattern id="pattern_L1_7" width="350" height="350" patternUnits="userSpaceOnUse">
      <use xlink:href="#L1_7" x="-350" y="-350"/>
      <use xlink:href="#L1_7" x="0" y="-350"/>
      <use xlink:href="#L1_7" x="350" y="-350"/>
      <use xlink:href="#L1_7" x="-350" y="0"/>
      <use xlink:href="#L1_7" x="0" y="0"/>
      <use xlink:href="#L1_7" x="350" y="0"/>
      <use xlink:href="#L1_7" x="-350" y="350"/>
      <use xlink:href="#L1_7" x="0" y="350"/>
      <use xlink:href="#L1_7" x="350" y="350"/>
    </pattern>
    <rect x="0" y="0" width="100%" height="100%" fill="url(#pattern_L1_7)"/>
  </g>
  <g fi:class="KUsePattern">
    <pattern id="pattern_L1_8" width="350" height="350" patternUnits="userSpaceOnUse">
      <use xlink:href="#L1_8" x="-350" y="-350"/>
      <use xlink:href="#L1_8" x="0" y="-350"/>
      <use xlink:href="#L1_8" x="350" y="-350"/>
      <use xlink:href="#L1_8" x="-350" y="0"/>
      <use xlink:href="#L1_8" x="0" y="0"/>
      <use xlink:href="#L1_8" x="350" y="0"/>
      <use xlink:href="#L1_8" x="-350" y="350"/>
      <use xlink:href="#L1_8" x="0" y="350"/>
      <use xlink:href="#L1_8" x="350" y="350"/>
    </pattern>
    <rect x="0" y="0" width="100%" height="100%" fill="url(#pattern_L1_8)"/>
  </g>
  <g fi:class="KUsePattern">
    <pattern id="pattern_L1_9" width="350" height="350" patternUnits="userSpaceOnUse">
      <use xlink:href="#L1_9" x="-350" y="-350"/>
      <use xlink:href="#L1_9" x="0" y="-350"/>
      <use xlink:href="#L1_9" x="350" y="-350"/>
      <use xlink:href="#L1_9" x="-350" y="0"/>
      <use xlink:href="#L1_9" x="0" y="0"/>
      <use xlink:href="#L1_9" x="350" y="0"/>
      <use xlink:href="#L1_9" x="-350" y="350"/>
      <use xlink:href="#L1_9" x="0" y="350"/>
      <use xlink:href="#L1_9" x="350" y="350"/>
    </pattern>
    <rect x="0" y="0" width="100%" height="100%" fill="url(#pattern_L1_9)"/>
  </g>
</svg>
